<?xml version="1.0" encoding="utf-8"?>
<!-- Svg Vector Icons : http://www.onlinewebfonts.com/icon -->
<!DOCTYPE svg PUBLIC "-//W3C//DTD SVG 1.1//EN" "http://www.w3.org/Graphics/SVG/1.1/DTD/svg11.dtd">
<svg version="1.1" xmlns="http://www.w3.org/2000/svg" xmlns:xlink="http://www.w3.org/1999/xlink" x="0px" y="0px" viewBox="0 0 1000 1000" enable-background="new 0 0 1000 1000" xml:space="preserve">
<metadata> Svg Vector Icons : http://www.onlinewebfonts.com/icon </metadata>
<g><g><path d="M676.6,579.8l-100.5-15.8V388.7c0-41.6-33.9-75.5-75.5-75.5h-1.1c-41.6,0-75.5,33.9-75.5,75.5v281.6L320,625.8c-20.9-8.9-44.6-6.8-63.6,5.7c-19,12.5-30.3,33.5-30.3,56.2v0.9c0,19.2,8.2,37.6,22.6,50.3l175.2,155.8v75.7c0,10.8,8.8,19.6,19.6,19.6s19.6-8.8,19.6-19.6V886c0-5.6-2.4-10.9-6.6-14.6L274.8,709.7c-6-5.3-9.5-13-9.5-21.1v-0.9c0-9.6,4.6-18.2,12.7-23.5c8.1-5.3,17.8-6.2,26.6-2.4L435.8,718c1.2,0.5,2.4,0.9,3.7,1.2c2,0.4,4,0.5,5.9,0.3c0.2,0,0.4-0.1,0.6-0.1c0.4-0.1,0.8-0.1,1.2-0.2c0.3-0.1,0.7-0.2,1-0.2c0.3-0.1,0.5-0.1,0.8-0.2c0.4-0.1,0.7-0.2,1.1-0.4c0.2-0.1,0.5-0.2,0.7-0.2c0.4-0.1,0.7-0.3,1-0.5c0.2-0.1,0.5-0.2,0.7-0.3c0.3-0.2,0.6-0.3,0.9-0.5c0.3-0.2,0.5-0.3,0.8-0.5c0.2-0.2,0.5-0.3,0.7-0.5c0.3-0.2,0.6-0.4,0.8-0.6c0.2-0.2,0.4-0.3,0.6-0.5c0.3-0.3,0.6-0.5,0.9-0.8c0.2-0.2,0.3-0.3,0.5-0.5c0.3-0.3,0.6-0.6,0.8-0.9c0.2-0.2,0.3-0.4,0.5-0.6c0.2-0.3,0.4-0.6,0.6-0.9c0.2-0.3,0.4-0.7,0.6-1c0.1-0.2,0.2-0.4,0.4-0.6c0.9-1.7,1.6-3.6,2-5.5c0.3-1.3,0.4-2.6,0.4-3.9V388.7c0-20.1,16.3-36.4,36.4-36.4h1.1c20.1,0,36.4,16.3,36.4,36.4v188c0,0.7,0,1.4,0.1,2.1c-1,10.3,6.1,19.7,16.4,21.3l117.2,18.4c0.1,0,0.2,0,0.3,0c70.9,10.1,124.3,71.6,124.3,143.2v2c0,33.1-8.1,66.2-23.4,95.6l-53.1,102c-5,9.6-1.3,21.4,8.3,26.4c2.9,1.5,6,2.2,9,2.2c7.1,0,13.9-3.8,17.4-10.5l53.1-102c18.2-34.9,27.8-74.2,27.8-113.6v-2c0-44.3-16-87.1-45-120.5C760.4,607.9,720.3,586.1,676.6,579.8z"/><path d="M614.5,455c9.9,4.4,21.5-0.1,25.8-10c8.6-19.6,13-40.4,13-61.9c0-84.6-68.8-153.4-153.4-153.4c-84.6,0-153.4,68.8-153.4,153.4c0,22.4,4.7,43.9,14,64.1c3.3,7.2,10.4,11.4,17.8,11.4c2.7,0,5.5-0.6,8.2-1.8c9.8-4.5,14.1-16.2,9.6-26c-6.9-15-10.4-31.1-10.4-47.7c0-63,51.2-114.2,114.2-114.2s114.2,51.2,114.2,114.2c0,16-3.3,31.5-9.7,46.1C600.2,439.1,604.6,450.6,614.5,455z"/><path d="M673.4,547.6c8.4,6.8,20.7,5.4,27.5-3c36.7-45.6,56.8-102.9,56.8-161.5c0-142.1-115.6-257.8-257.8-257.8c-142.1,0-257.8,115.6-257.8,257.8c0,90.3,46,172.5,123,219.8c3.2,2,6.7,2.9,10.2,2.9c6.6,0,13-3.3,16.7-9.3c5.7-9.2,2.8-21.3-6.4-26.9c-65.3-40.1-104.4-109.8-104.4-186.4c0-120.5,98.1-218.6,218.6-218.6c120.5,0,218.6,98.1,218.6,218.6c0,50.4-16.7,97.8-48.2,136.9C663.6,528.5,665,540.8,673.4,547.6z"/><path d="M234.3,585.4c-44.6-58.5-68.2-128.5-68.2-202.3c0-184.1,149.8-334,333.9-334s333.9,149.8,333.9,334c0,61.8-17,122.2-49.2,174.6c-5.7,9.2-2.8,21.3,6.4,26.9c9.2,5.7,21.3,2.8,26.9-6.4c36-58.6,55-126,55-195.1C873.1,177.4,705.7,10,500,10c-205.7,0-373.1,167.4-373.1,373.1c0,82.5,26.4,160.6,76.2,226c3.9,5.1,9.7,7.7,15.6,7.7c4.1,0,8.3-1.3,11.9-4C239.2,606.3,240.8,594,234.3,585.4z"/></g><g></g><g></g><g></g><g></g><g></g><g></g><g></g><g></g><g></g><g></g><g></g><g></g><g></g><g></g><g></g></g>
</svg>